<?xml version="1.0" encoding="UTF-8" standalone="no"?>
<!-- Created with Inkscape (http://www.inkscape.org/) -->

<svg
   width="163.185mm"
   height="44.516998mm"
   viewBox="0 0 163.185 44.516998"
   version="1.1"
   id="svg1"
   xml:space="preserve"
   inkscape:version="1.3.2 (091e20ef0f, 2023-11-25, custom)"
   sodipodi:docname="logo_white.svg"
   xmlns:inkscape="http://www.inkscape.org/namespaces/inkscape"
   xmlns:sodipodi="http://sodipodi.sourceforge.net/DTD/sodipodi-0.dtd"
   xmlns="http://www.w3.org/2000/svg"
   xmlns:svg="http://www.w3.org/2000/svg"><sodipodi:namedview
     id="namedview1"
     pagecolor="#ffffff"
     bordercolor="#000000"
     borderopacity="0.25"
     inkscape:showpageshadow="2"
     inkscape:pageopacity="0.0"
     inkscape:pagecheckerboard="true"
     inkscape:deskcolor="#d1d1d1"
     inkscape:document-units="mm"
     inkscape:zoom="2.0436167"
     inkscape:cx="320.99953"
     inkscape:cy="90.036454"
     inkscape:window-width="1920"
     inkscape:window-height="1016"
     inkscape:window-x="0"
     inkscape:window-y="32"
     inkscape:window-maximized="1"
     inkscape:current-layer="layer2"
     showguides="true" /><defs
     id="defs1" /><g
     inkscape:groupmode="layer"
     id="layer2"
     inkscape:label="Layer 2"
     transform="translate(-63.076453,-85.368348)"><g
       id="g6"
       transform="translate(0.18309565,-1.8309565)"><path
         style="fill:#ffffff;fill-opacity:0.911661;stroke-width:0.264583"
         d="m 62.893357,128.71624 4.11965,-7.46114 26.915062,-0.0458 4.302747,7.46115 z"
         id="path1" /><path
         style="fill:#ffffff;fill-opacity:1;stroke-width:0.264583"
         d="M 68.386226,118.73753 86.329598,87.199305 90.861218,95.026643 77.403687,118.7833 Z"
         id="path2" /><path
         style="fill:#ffffff;fill-opacity:0.674912;stroke-width:0.264583"
         d="m 92.234434,97.956173 17.577186,30.760067 h -8.51395 L 87.74859,105.4631 Z"
         id="path3" /></g><path
       d="m 132.28352,92.632236 h -5.43849 l -0.85824,2.457257 h -3.49617 l 4.99582,-13.487811 h 4.14663 l 4.99582,13.487811 h -3.49618 z m -4.57122,-2.502427 h 3.69491 l -1.84294,-5.366216 z m 14.18343,-5.899224 v 8.230004 h 1.24669 q 2.13204,0 3.25226,-1.056982 1.12925,-1.056981 1.12925,-3.071571 0,-2.005555 -1.12022,-3.053503 -1.12022,-1.047948 -3.26129,-1.047948 z m -3.47811,-2.628903 h 3.66782 q 3.07157,0 4.57122,0.442667 1.50869,0.433634 2.58374,1.481582 0.94857,0.912437 1.4093,2.104929 0.46074,1.192493 0.46074,2.701176 0,1.526752 -0.46074,2.728278 -0.46073,1.192492 -1.4093,2.10493 -1.08409,1.047948 -2.60181,1.490615 -1.51771,0.433634 -4.55315,0.433634 h -3.66782 z m 26.05415,12.74702 q -0.9576,0.496872 -1.99652,0.749825 -1.03891,0.252953 -2.16816,0.252953 -3.3697,0 -5.33912,-1.879079 -1.96942,-1.888113 -1.96942,-5.113263 0,-3.234184 1.96942,-5.113262 1.96942,-1.888113 5.33912,-1.888113 1.12925,0 2.16816,0.252953 1.03892,0.252953 1.99652,0.749824 v 2.791517 q -0.96664,-0.659485 -1.90618,-0.966642 -0.93954,-0.307157 -1.97845,-0.307157 -1.86101,0 -2.92703,1.192492 -1.06601,1.192493 -1.06601,3.288388 0,2.086862 1.06601,3.279354 1.06602,1.192493 2.92703,1.192493 1.03891,0 1.97845,-0.307158 0.93954,-0.307157 1.90618,-0.966641 z m 9.04307,-10.470444 q -1.58999,0 -2.46629,1.174424 -0.8763,1.174424 -0.8763,3.306456 0,2.122998 0.8763,3.297422 0.8763,1.174425 2.46629,1.174425 1.59903,0 2.47533,-1.174425 0.8763,-1.174424 0.8763,-3.297422 0,-2.132032 -0.8763,-3.306456 -0.8763,-1.174424 -2.47533,-1.174424 z m 0,-2.520495 q 3.25226,0 5.0952,1.861011 1.84294,1.86101 1.84294,5.140364 0,3.27032 -1.84294,5.131331 -1.84294,1.861011 -5.0952,1.861011 -3.24321,0 -5.09519,-1.861011 -1.84294,-1.861011 -1.84294,-5.131331 0,-3.279354 1.84294,-5.140364 1.85198,-1.861011 5.09519,-1.861011 z m 9.56704,0.243919 h 4.42668 l 3.07157,7.218192 3.08964,-7.218192 h 4.41764 v 13.487811 h -3.28839 v -9.865164 l -3.1077,7.272396 h -2.20431 l -3.10771,-7.272396 v 9.865164 h -3.29742 z m 24.85263,0 h 5.77274 q 2.5747,0 3.94787,1.147322 1.38221,1.138288 1.38221,3.252252 0,2.122997 -1.38221,3.27032 -1.37317,1.138288 -3.94787,1.138288 h -2.29464 v 4.679629 h -3.4781 z m 3.4781,2.520495 v 3.767192 h 1.92425 q 1.01181,0 1.56288,-0.487838 0.55108,-0.496872 0.55108,-1.400275 0,-0.903404 -0.55108,-1.391241 -0.55107,-0.487838 -1.56288,-0.487838 z m 20.77828,10.226525 q -0.95761,0.496872 -1.99652,0.749825 -1.03892,0.252953 -2.16817,0.252953 -3.36969,0 -5.33911,-1.879079 -1.96942,-1.888113 -1.96942,-5.113263 0,-3.234184 1.96942,-5.113262 1.96942,-1.888113 5.33911,-1.888113 1.12925,0 2.16817,0.252953 1.03891,0.252953 1.99652,0.749824 v 2.791517 q -0.96664,-0.659485 -1.90618,-0.966642 -0.93954,-0.307157 -1.97845,-0.307157 -1.86102,0 -2.92703,1.192492 -1.06602,1.192493 -1.06602,3.288388 0,2.086862 1.06602,3.279354 1.06601,1.192493 2.92703,1.192493 1.03891,0 1.97845,-0.307158 0.93954,-0.307157 1.90618,-0.966641 z"
       id="text3"
       style="font-weight:600;font-size:18.5017px;font-family:Poppins;-inkscape-font-specification:'Poppins Semi-Bold';fill:#ffffff;stroke-width:0.770905"
       transform="scale(0.93223658,1.0726891)"
       aria-label="ADCOM PC" /><path
       d="m 127.71733,109.83755 v -3.14856 h -2.59108 v -1.30339 h 4.16144 v 5.03298 q -0.91866,0.65169 -2.02576,0.98932 -1.10709,0.32977 -2.36338,0.32977 -2.74811,0 -4.30276,-1.60176 -1.5468,-1.60961 -1.5468,-4.4755 0,-2.87374 1.5468,-4.4755 1.55465,-1.609611 4.30276,-1.609611 1.14636,0 2.17494,0.282664 1.03643,0.282667 1.90798,0.832287 v 1.68813 q -0.8794,-0.74592 -1.86872,-1.1228 -0.98932,-0.37689 -2.08072,-0.37689 -2.15138,0 -3.23492,1.20132 -1.07569,1.20132 -1.07569,3.5804 0,2.37123 1.07569,3.57255 1.08354,1.20132 3.23492,1.20132 0.84014,0 1.49969,-0.14133 0.65955,-0.14918 1.18561,-0.4554 z m 4.46766,-10.050253 h 1.58605 v 10.906093 q 0,2.11997 -0.80873,3.07789 -0.80088,0.95791 -2.58323,0.95791 h -0.60458 v -1.3348 h 0.49466 q 1.05213,0 1.48398,-0.58888 0.43185,-0.58888 0.43185,-2.11212 z m 4.74246,0 h 7.41206 v 1.334803 h -5.82601 v 3.47047 h 5.5826 v 1.3348 h -5.5826 v 4.2478 h 5.96734 v 1.3348 h -7.55339 z m 10.16017,0 h 2.13568 l 5.19786,9.806843 v -9.806843 h 1.53895 v 11.722673 h -2.13568 l -5.19786,-9.80684 v 9.80684 h -1.53895 z m 15.05182,11.722673 -4.4755,-11.722673 h 1.65672 l 3.71388,9.869663 3.72173,-9.869663 h 1.64887 l -4.46765,11.722673 z m 7.97739,-11.722673 h 1.58605 v 11.722673 h -1.58605 z m 4.74246,0 h 2.13568 l 5.19786,9.806843 v -9.806843 h 1.53895 v 11.722673 h -2.13568 l -5.19787,-9.80684 v 9.80684 h -1.53894 z m 12.0289,0 h 2.13567 l 5.19787,9.806843 v -9.806843 h 1.53894 v 11.722673 h -2.13568 l -5.19786,-9.80684 v 9.80684 h -1.53894 z m 12.02889,0 h 1.58605 v 11.722673 h -1.58605 z m 4.74246,0 h 2.13568 l 5.19786,9.806843 v -9.806843 h 1.53895 v 11.722673 h -2.13568 l -5.19787,-9.80684 v 9.80684 h -1.53894 z m 20.02198,10.050253 v -3.14856 h -2.59108 v -1.30339 h 4.16143 v 5.03298 q -0.91865,0.65169 -2.02575,0.98932 -1.1071,0.32977 -2.36338,0.32977 -2.74811,0 -4.30276,-1.60176 -1.5468,-1.60961 -1.5468,-4.4755 0,-2.87374 1.5468,-4.4755 1.55465,-1.609611 4.30276,-1.609611 1.14636,0 2.17494,0.282664 1.03643,0.282667 1.90798,0.832287 v 1.68813 q -0.8794,-0.74592 -1.86872,-1.1228 -0.98932,-0.37689 -2.08072,-0.37689 -2.15138,0 -3.23492,1.20132 -1.07569,1.20132 -1.07569,3.5804 0,2.37123 1.07569,3.57255 1.08354,1.20132 3.23492,1.20132 0.84014,0 1.49969,-0.14133 0.65954,-0.14918 1.18561,-0.4554 z"
       id="text5"
       style="font-weight:500;font-size:16.0804px;font-family:Poppins;-inkscape-font-specification:'Poppins Medium';fill:#ffffff;stroke-width:0.670017"
       transform="scale(0.96087723,1.0407157)"
       aria-label="GJENVINNING" /><path
       d="m 131.37596,109.19347 q 0.19732,0.0668 0.38248,0.28535 0.18821,0.21856 0.37641,0.60104 l 0.62229,1.23851 h -0.65871 l -0.5798,-1.16262 q -0.22463,-0.45534 -0.43712,-0.60408 -0.20945,-0.14874 -0.57372,-0.14874 h -0.66782 v 1.91544 h -0.61318 v -4.5321 h 1.38421 q 0.77711,0 1.15959,0.32481 0.38248,0.3248 0.38248,0.98049 0,0.42801 -0.20035,0.71032 -0.19731,0.2823 -0.57676,0.39158 z m -1.53599,-1.90329 v 1.60884 h 0.77103 q 0.44319,0 0.66783,-0.20338 0.22766,-0.20642 0.22766,-0.60407 0,-0.39766 -0.22766,-0.59801 -0.22464,-0.20338 -0.66783,-0.20338 z m 3.70642,-0.50391 h 2.86557 v 0.51605 h -2.25239 v 1.34172 h 2.15829 v 0.51604 h -2.15829 v 1.64224 h 2.30703 v 0.51605 h -2.92021 z m 6.64484,0.14875 v 0.598 q -0.34909,-0.16695 -0.65871,-0.24891 -0.30963,-0.082 -0.59801,-0.082 -0.50087,0 -0.77407,0.19427 -0.27016,0.19428 -0.27016,0.55247 0,0.30052 0.1791,0.45534 0.18213,0.15178 0.68603,0.24588 l 0.37034,0.0759 q 0.68604,0.13053 1.01084,0.4614 0.32784,0.32784 0.32784,0.88032 0,0.65871 -0.44319,0.9987 -0.44015,0.33998 -1.29315,0.33998 -0.32177,0 -0.68603,-0.0729 -0.36124,-0.0729 -0.74979,-0.21552 v -0.6314 q 0.37338,0.20946 0.73157,0.3157 0.3582,0.10625 0.70425,0.10625 0.52516,0 0.8105,-0.20642 0.28534,-0.20642 0.28534,-0.5889 0,-0.33391 -0.20642,-0.52212 -0.20338,-0.1882 -0.67086,-0.2823 l -0.37337,-0.0729 q -0.68604,-0.1366 -0.99263,-0.42801 -0.30659,-0.29142 -0.30659,-0.8105 0,-0.60104 0.42194,-0.94709 0.42498,-0.34606 1.16869,-0.34606 0.31874,0 0.64961,0.0577 0.33088,0.0577 0.67693,0.17303 z m 1.22941,-0.14875 h 0.61318 v 4.5321 h -0.61318 z m 3.98265,2.4072 q 0.19731,0.0668 0.38248,0.28535 0.18821,0.21856 0.37641,0.60104 l 0.62229,1.23851 h -0.65871 l -0.5798,-1.16262 q -0.22463,-0.45534 -0.43712,-0.60408 -0.20945,-0.14874 -0.57372,-0.14874 h -0.66782 v 1.91544 h -0.61318 v -4.5321 h 1.38421 q 0.77711,0 1.15959,0.32481 0.38248,0.3248 0.38248,0.98049 0,0.42801 -0.20035,0.71032 -0.19731,0.2823 -0.57676,0.39158 z m -1.53599,-1.90329 v 1.60884 h 0.77103 q 0.44319,0 0.66782,-0.20338 0.22767,-0.20642 0.22767,-0.60407 0,-0.39766 -0.22767,-0.59801 -0.22463,-0.20338 -0.66782,-0.20338 z m 3.70642,-0.50391 h 0.61318 v 1.91544 l 2.03383,-1.91544 h 0.78924 l -2.24935,2.11275 2.41024,2.41935 h -0.80746 l -2.1765,-2.18257 v 2.18257 h -0.61318 z m 3.83998,0 h 0.61622 v 2.75326 q 0,0.72853 0.2641,1.0503 0.26409,0.31874 0.85603,0.31874 0.58889,0 0.85299,-0.31874 0.26409,-0.32177 0.26409,-1.0503 v -2.75326 h 0.61622 v 2.82915 q 0,0.88638 -0.44015,1.33868 -0.43713,0.4523 -1.29315,0.4523 -0.85907,0 -1.29922,-0.4523 -0.43713,-0.4523 -0.43713,-1.33868 z m 4.62013,0 h 0.61318 v 4.01605 h 2.20686 v 0.51605 h -2.82004 z m 3.46357,0 h 2.86557 v 0.51605 h -2.25238 v 1.34172 h 2.15828 v 0.51604 h -2.15828 v 1.64224 h 2.30702 v 0.51605 h -2.92021 z m 6.0772,2.4072 q 0.19731,0.0668 0.38248,0.28535 0.1882,0.21856 0.37641,0.60104 l 0.62229,1.23851 h -0.65872 l -0.57979,-1.16262 q -0.22463,-0.45534 -0.43712,-0.60408 -0.20945,-0.14874 -0.57372,-0.14874 h -0.66783 v 1.91544 h -0.61318 v -4.5321 h 1.38422 q 0.7771,0 1.15958,0.32481 0.38248,0.3248 0.38248,0.98049 0,0.42801 -0.20034,0.71032 -0.19732,0.2823 -0.57676,0.39158 z m -1.536,-1.90329 v 1.60884 h 0.77104 q 0.44319,0 0.66782,-0.20338 0.22767,-0.20642 0.22767,-0.60407 0,-0.39766 -0.22767,-0.59801 -0.22463,-0.20338 -0.66782,-0.20338 z m 3.70642,-0.50391 h 0.61319 v 4.5321 h -0.61319 z m 1.83348,0 h 0.82568 l 2.00954,3.79142 v -3.79142 h 0.59497 v 4.5321 h -0.82567 l -2.00955,-3.79142 v 3.79142 h -0.59497 z m 7.74068,3.88552 v -1.21726 h -1.00173 v -0.5039 h 1.60885 v 1.94579 q -0.35516,0.25196 -0.78318,0.38248 -0.42801,0.1275 -0.9137,0.1275 -1.06245,0 -1.66349,-0.61926 -0.598,-0.62229 -0.598,-1.73027 0,-1.11101 0.598,-1.73027 0.60104,-0.62229 1.66349,-0.62229 0.44319,0 0.84085,0.10928 0.40069,0.10928 0.73764,0.32177 v 0.65265 q -0.33998,-0.28838 -0.72246,-0.43409 -0.38248,-0.1457 -0.80443,-0.1457 -0.83174,0 -1.25065,0.46444 -0.41587,0.46444 -0.41587,1.38421 0,0.91674 0.41587,1.38118 0.41891,0.46445 1.25065,0.46445 0.32481,0 0.5798,-0.0547 0.25498,-0.0577 0.45836,-0.17606 z m 5.21814,-3.28144 -0.83175,2.25542 h 1.66652 z m -0.34606,-0.60408 h 0.69514 l 1.72724,4.5321 h -0.63747 l -0.41284,-1.16262 h -2.04293 l -0.41283,1.16262 h -0.64658 z m 3.85516,4.5321 -1.73027,-4.5321 h 0.64051 l 1.43582,3.8157 1.43885,-3.8157 h 0.63747 l -1.72723,4.5321 z m 5.67347,-2.16436 v 1.66045 h 0.98352 q 0.4948,0 0.73157,-0.20338 0.23981,-0.20642 0.23981,-0.62836 0,-0.42498 -0.23981,-0.62533 -0.23677,-0.20338 -0.73157,-0.20338 z m 0,-1.86383 v 1.366 h 0.90763 q 0.44927,0 0.66783,-0.16696 0.22159,-0.16999 0.22159,-0.51604 0,-0.34302 -0.22159,-0.51301 -0.21856,-0.16999 -0.66783,-0.16999 z m -0.61318,-0.50391 h 1.56635 q 0.70121,0 1.08066,0.29142 0.37944,0.29141 0.37944,0.82871 0,0.41587 -0.19427,0.66175 -0.19428,0.24588 -0.57069,0.30659 0.4523,0.0971 0.70121,0.40677 0.25196,0.30659 0.25196,0.76799 0,0.60711 -0.41284,0.93799 -0.41284,0.33088 -1.17476,0.33088 h -1.62706 z m 6.41414,2.4072 q 0.19731,0.0668 0.38248,0.28535 0.1882,0.21856 0.37641,0.60104 l 0.62229,1.23851 h -0.65872 l -0.57979,-1.16262 q -0.22463,-0.45534 -0.43712,-0.60408 -0.20946,-0.14874 -0.57372,-0.14874 h -0.66783 v 1.91544 h -0.61318 v -4.5321 h 1.38421 q 0.77711,0 1.15959,0.32481 0.38248,0.3248 0.38248,0.98049 0,0.42801 -0.20035,0.71032 -0.19731,0.2823 -0.57675,0.39158 z m -1.536,-1.90329 v 1.60884 h 0.77103 q 0.4432,0 0.66783,-0.20338 0.22766,-0.20642 0.22766,-0.60407 0,-0.39766 -0.22766,-0.59801 -0.22463,-0.20338 -0.66783,-0.20338 z m 3.6366,-0.50391 h 0.61622 v 2.75326 q 0,0.72853 0.2641,1.0503 0.26409,0.31874 0.85602,0.31874 0.5889,0 0.853,-0.31874 0.26409,-0.32177 0.26409,-1.0503 v -2.75326 h 0.61622 v 2.82915 q 0,0.88638 -0.44016,1.33868 -0.43712,0.4523 -1.29315,0.4523 -0.85906,0 -1.29922,-0.4523 -0.43712,-0.4523 -0.43712,-1.33868 z m 4.62013,0 h 0.61318 v 1.91544 l 2.03383,-1.91544 h 0.78924 l -2.24935,2.11275 2.41024,2.41935 h -0.80746 l -2.1765,-2.18257 v 2.18257 h -0.61318 z m 2.96575,0 h 3.83391 v 0.51605 h -1.60885 v 4.01605 h -0.61622 v -4.01605 h -1.60884 z m 6.40199,0 h 0.61319 v 4.5321 h -0.61319 z m 1.20512,0 h 3.83392 v 0.51605 h -1.60885 v 4.01605 h -0.61622 v -4.01605 h -1.60885 z m 3.54857,2.58023 h 1.63617 v 0.49783 h -1.63617 z m 2.48005,-2.58023 h 0.61622 v 2.75326 q 0,0.72853 0.2641,1.0503 0.26409,0.31874 0.85603,0.31874 0.58889,0 0.85299,-0.31874 0.26409,-0.32177 0.26409,-1.0503 v -2.75326 h 0.61622 v 2.82915 q 0,0.88638 -0.44016,1.33868 -0.43712,0.4523 -1.29314,0.4523 -0.85907,0 -1.29922,-0.4523 -0.43713,-0.4523 -0.43713,-1.33868 z m 3.99177,0 h 3.83391 v 0.51605 h -1.60884 v 4.01605 h -0.61622 v -4.01605 h -1.60885 z m 7.14267,0.14875 v 0.598 q -0.34909,-0.16695 -0.65871,-0.24891 -0.30963,-0.082 -0.59801,-0.082 -0.50087,0 -0.77407,0.19427 -0.27016,0.19428 -0.27016,0.55247 0,0.30052 0.1791,0.45534 0.18213,0.15178 0.68603,0.24588 l 0.37034,0.0759 q 0.68604,0.13053 1.01084,0.4614 0.32784,0.32784 0.32784,0.88032 0,0.65871 -0.44319,0.9987 -0.44015,0.33998 -1.29315,0.33998 -0.32177,0 -0.68603,-0.0729 -0.36124,-0.0729 -0.74979,-0.21552 v -0.6314 q 0.37338,0.20946 0.73157,0.3157 0.3582,0.10625 0.70425,0.10625 0.52515,0 0.8105,-0.20642 0.28534,-0.20642 0.28534,-0.5889 0,-0.33391 -0.20642,-0.52212 -0.20338,-0.1882 -0.67086,-0.2823 l -0.37337,-0.0729 q -0.68604,-0.1366 -0.99263,-0.42801 -0.30659,-0.29142 -0.30659,-0.8105 0,-0.60104 0.42194,-0.94709 0.42498,-0.34606 1.16869,-0.34606 0.31874,0 0.64961,0.0577 0.33088,0.0577 0.67693,0.17303 z m 0.60104,-0.14875 h 3.83392 v 0.51605 h -1.60885 v 4.01605 h -0.61622 v -4.01605 h -1.60885 z m 3.80357,0 h 0.65871 l 1.25673,1.86384 1.24761,-1.86384 h 0.65872 l -1.60278,2.37381 v 2.15829 h -0.61622 v -2.15829 z m 6.56895,2.4072 q 0.19731,0.0668 0.38248,0.28535 0.18821,0.21856 0.37641,0.60104 l 0.62229,1.23851 h -0.65872 l -0.57979,-1.16262 q -0.22463,-0.45534 -0.43712,-0.60408 -0.20945,-0.14874 -0.57372,-0.14874 h -0.66782 v 1.91544 h -0.61319 v -4.5321 h 1.38422 q 0.7771,0 1.15958,0.32481 0.38248,0.3248 0.38248,0.98049 0,0.42801 -0.20034,0.71032 -0.19732,0.2823 -0.57676,0.39158 z m -1.53599,-1.90329 v 1.60884 h 0.77103 q 0.44319,0 0.66782,-0.20338 0.22767,-0.20642 0.22767,-0.60407 0,-0.39766 -0.22767,-0.59801 -0.22463,-0.20338 -0.66782,-0.20338 z"
       id="text6"
       style="font-weight:500;font-size:6.21683px;font-family:Poppins;-inkscape-font-specification:'Poppins Medium';fill:#ffffff;stroke-width:0.259034"
       transform="scale(0.8884549,1.1255495)"
       aria-label="RESIRKULERING AV BRUKT IT-UTSTYR" /></g></svg>
